<svg width="50" height="50" viewBox="0 0 50 50" fill="none" xmlns="http://www.w3.org/2000/svg">
<path d="M42.7823 26.6914H38.9155C39.3097 27.7705 39.525 28.9351 39.525 30.1488V44.7631C39.525 45.2692 39.4369 45.7549 39.2767 46.2067H45.6694C48.0573 46.2067 50 44.2639 50 41.876V33.9091C50.0001 29.9293 46.7622 26.6914 42.7823 26.6914Z" fill="#5B5B5B"/>
<path d="M10.4751 30.149C10.4751 28.9351 10.6905 27.7706 11.0846 26.6915H7.21779C3.2379 26.6915 0 29.9294 0 33.9093V41.8762C0 44.2641 1.94268 46.2069 4.33067 46.2069H10.7235C10.5632 45.7549 10.4751 45.2693 10.4751 44.7632V30.149Z" fill="#5B5B5B"/>
<path d="M29.4201 22.9313H20.5801C16.6002 22.9313 13.3623 26.1692 13.3623 30.1491V44.7633C13.3623 45.5605 14.0086 46.2069 14.8059 46.2069H35.1944C35.9916 46.2069 36.6379 45.5606 36.6379 44.7633V30.1491C36.6379 26.1692 33.4 22.9313 29.4201 22.9313Z" fill="#5B5B5B"/>
<path d="M25.0001 3.79297C20.2138 3.79297 16.3198 7.68692 16.3198 12.4734C16.3198 15.7199 18.1117 18.5554 20.758 20.0441C22.0132 20.7501 23.4603 21.1537 25.0001 21.1537C26.54 21.1537 27.987 20.7501 29.2422 20.0441C31.8886 18.5554 33.6804 15.7198 33.6804 12.4734C33.6804 7.68702 29.7864 3.79297 25.0001 3.79297Z" fill="#5B5B5B"/>
<path d="M9.75758 11.8838C6.17798 11.8838 3.26587 14.7959 3.26587 18.3755C3.26587 21.9551 6.17798 24.8672 9.75758 24.8672C10.6656 24.8672 11.5302 24.6791 12.3157 24.341C13.6737 23.7564 14.7934 22.7214 15.4863 21.425C15.9726 20.5152 16.2493 19.4772 16.2493 18.3755C16.2493 14.796 13.3372 11.8838 9.75758 11.8838Z" fill="#5B5B5B"/>
<path d="M40.2424 11.8838C36.6628 11.8838 33.7507 14.7959 33.7507 18.3755C33.7507 19.4773 34.0274 20.5153 34.5137 21.425C35.2066 22.7215 36.3263 23.7565 37.6843 24.341C38.4698 24.6791 39.3344 24.8672 40.2424 24.8672C43.822 24.8672 46.7342 21.9551 46.7342 18.3755C46.7342 14.7959 43.822 11.8838 40.2424 11.8838Z" fill="#5B5B5B"/>
</svg>
