<svg width="23" height="23" viewBox="0 0 23 23" fill="none" xmlns="http://www.w3.org/2000/svg">
<g clip-path="url(#clip0)">
<path d="M22.719 21.3643L16.1784 14.8238C17.4453 13.2588 18.2081 11.2703 18.2081 9.1045C18.2081 4.08479 14.1237 0.000404358 9.10405 0.000404358C4.08435 0.000404358 0 4.08475 0 9.10445C0 14.1242 4.08439 18.2085 9.10409 18.2085C11.2699 18.2085 13.2584 17.4457 14.8234 16.1788L21.3639 22.7194C21.5508 22.9062 21.7961 23.0002 22.0415 23.0002C22.2868 23.0002 22.5321 22.9062 22.719 22.7194C23.0937 22.3447 23.0937 21.739 22.719 21.3643ZM9.10409 16.2919C5.14045 16.2919 1.91666 13.0681 1.91666 9.10445C1.91666 5.14081 5.14045 1.91702 9.10409 1.91702C13.0677 1.91702 16.2915 5.14081 16.2915 9.10445C16.2915 13.0681 13.0677 16.2919 9.10409 16.2919Z" fill="#AEAEAE"/>
</g>
<defs>
<clipPath id="clip0">
<rect width="23" height="23" fill="white"/>
</clipPath>
</defs>
</svg>
