<svg width="63" height="63" viewBox="0 0 63 63" fill="none" xmlns="http://www.w3.org/2000/svg">
<path d="M26.7981 19.8869L31.4999 17.4151L36.2018 19.8869C36.4457 20.0152 36.7205 20.0726 36.9953 20.0527C37.2701 20.0329 37.5339 19.9366 37.7568 19.7746C37.9797 19.6127 38.1529 19.3916 38.2567 19.1364C38.3605 18.8812 38.3909 18.6021 38.3443 18.3305L37.4461 13.0948L41.2502 9.38686C41.4475 9.19455 41.587 8.95088 41.653 8.6834C41.719 8.41593 41.7089 8.13531 41.6238 7.87329C41.5387 7.61126 41.3819 7.37828 41.1713 7.20069C40.9607 7.0231 40.7045 6.90797 40.4319 6.86834L35.175 6.10446L32.824 1.34119C32.7021 1.09412 32.5135 0.886084 32.2795 0.740621C32.0455 0.595157 31.7755 0.518066 31.4999 0.518066C31.2244 0.518066 30.9544 0.595157 30.7204 0.740621C30.4864 0.886084 30.2978 1.09412 30.1758 1.34119L27.8249 6.10446L22.568 6.86834C22.2953 6.90797 22.0392 7.0231 21.8286 7.20069C21.618 7.37828 21.4612 7.61126 21.3761 7.87329C21.291 8.13531 21.2808 8.41593 21.3469 8.6834C21.4129 8.95088 21.5524 9.19455 21.7497 9.38686L25.5536 13.0948L24.6553 18.3305C24.6088 18.6021 24.6391 18.8812 24.743 19.1364C24.8468 19.3916 25.0199 19.6127 25.2428 19.7746C25.4657 19.9366 25.7295 20.0329 26.0043 20.0527C26.2791 20.0726 26.554 20.0152 26.7978 19.8869H26.7981Z" fill="#5B5B5B"/>
<path d="M61.8968 22.4428L57.6469 19.2559L57.8628 13.948C57.8741 13.6727 57.808 13.3997 57.6722 13.1599C57.5363 12.9201 57.3361 12.7232 57.0941 12.5913C56.8521 12.4594 56.578 12.3979 56.3029 12.4137C56.0278 12.4295 55.7626 12.5219 55.5372 12.6806L51.1934 15.7377L46.2121 13.892C45.9538 13.7963 45.6738 13.7748 45.4039 13.8299C45.134 13.885 44.8849 14.0145 44.6847 14.2038C44.4845 14.3931 44.3413 14.6347 44.2713 14.9011C44.2012 15.1675 44.207 15.4482 44.2882 15.7115L45.8532 20.7879L42.5588 24.9552C42.3879 25.1713 42.2809 25.4309 42.2499 25.7047C42.2188 25.9785 42.265 26.2554 42.3832 26.5043C42.5014 26.7532 42.6869 26.9641 42.9186 27.113C43.1504 27.262 43.4192 27.3432 43.6947 27.3473L49.0062 27.4274L51.9514 31.8485C52.0862 32.0508 52.2689 32.2167 52.4832 32.3315C52.6975 32.4463 52.9368 32.5064 53.1799 32.5064C53.2436 32.5064 53.3072 32.5023 53.3704 32.4941C53.6436 32.4587 53.9015 32.3474 54.1148 32.173C54.3281 31.9986 54.4884 31.768 54.5775 31.5073L56.2951 26.4805L61.4098 25.0456C61.675 24.9712 61.9142 24.824 62.1002 24.6208C62.2862 24.4175 62.4116 24.1663 62.4623 23.8955C62.5129 23.6247 62.4868 23.3451 62.3869 23.0884C62.287 22.8316 62.1172 22.608 61.8968 22.4427V22.4428Z" fill="#5B5B5B"/>
<path d="M19.3053 27.3474C19.5808 27.3433 19.8496 27.2621 20.0814 27.1131C20.3131 26.9642 20.4986 26.7533 20.6168 26.5044C20.735 26.2556 20.7812 25.9786 20.7502 25.7048C20.7191 25.431 20.6121 25.1714 20.4413 24.9553L17.1468 20.7881L18.7118 15.7116C18.793 15.4484 18.7989 15.1676 18.7288 14.9012C18.6588 14.6347 18.5156 14.3932 18.3154 14.2039C18.1152 14.0145 17.8661 13.885 17.5962 13.8299C17.3262 13.7748 17.0462 13.7963 16.7879 13.892L11.8066 15.7377L7.46302 12.6806C7.23772 12.5219 6.9725 12.4295 6.69737 12.4137C6.42224 12.3979 6.14818 12.4594 5.9062 12.5913C5.66422 12.7232 5.46397 12.9201 5.32811 13.1599C5.19225 13.3997 5.1262 13.6727 5.13744 13.948L5.35339 19.2559L1.10347 22.4428C0.883064 22.6081 0.713299 22.8318 0.61337 23.0885C0.513441 23.3452 0.487336 23.6248 0.538004 23.8956C0.588673 24.1664 0.714095 24.4177 0.900089 24.6209C1.08608 24.8241 1.32523 24.9713 1.59049 25.0457L6.70518 26.4806L8.42254 31.5074C8.51163 31.7681 8.67189 31.9987 8.88518 32.1731C9.09848 32.3475 9.35631 32.4587 9.62953 32.4942C9.90274 32.5297 10.1804 32.4881 10.4312 32.374C10.682 32.2599 10.8959 32.0779 11.0486 31.8486L13.9939 27.4275L19.3053 27.3474Z" fill="#5B5B5B"/>
<path d="M49.7109 42.8203C50.3657 42.8203 51.0019 42.6027 51.5196 42.2018C52.0373 41.8009 52.4071 41.2394 52.571 40.6055C52.4071 39.9716 52.0373 39.41 51.5196 39.0091C51.0019 38.6082 50.3657 38.3907 49.7109 38.3906H38.8828V31.6231C38.8828 29.782 38.8828 26.1117 34.053 25.643C33.9165 25.6302 33.7788 25.646 33.6488 25.6895C33.5187 25.733 33.3992 25.8031 33.2979 25.8955C33.1966 25.9878 33.1156 26.1003 33.0603 26.2258C33.005 26.3512 32.9764 26.4868 32.9766 26.6239V33.3132C32.9765 33.4954 32.926 33.6739 32.8305 33.8291L30.0234 38.3906H30.1465L26.0859 41.0424V60.011C26.6841 60.3577 27.3633 60.5399 28.0547 60.5391H47.7422C48.397 60.539 49.0332 60.3215 49.5509 59.9206C50.0686 59.5197 50.4384 58.9582 50.6023 58.3242C50.4384 57.6903 50.0686 57.1288 49.5509 56.7279C49.0332 56.327 48.397 56.1094 47.7422 56.1094H44.7891V54.6328H48.7266C49.3813 54.6328 50.0175 54.4152 50.5352 54.0143C51.0529 53.6134 51.4228 53.0519 51.5867 52.418C51.4228 51.7841 51.0529 51.2225 50.5352 50.8217C50.0175 50.4208 49.3813 50.2032 48.7266 50.2031H44.7891V48.7266H49.7109C50.3657 48.7265 51.0019 48.509 51.5196 48.1081C52.0373 47.7072 52.4071 47.1457 52.571 46.5117C52.4071 45.8778 52.0373 45.3163 51.5196 44.9154C51.0019 44.5145 50.3657 44.2969 49.7109 44.2969H44.7891V42.8203H49.7109Z" fill="#5B5B5B"/>
<path d="M23.1328 38.3906H13.2891C12.8975 38.3906 12.5219 38.5462 12.245 38.8231C11.9681 39.1 11.8125 39.4756 11.8125 39.8672V60.5391C11.8125 60.9307 11.9681 61.3062 12.245 61.5832C12.5219 61.8601 12.8975 62.0156 13.2891 62.0156H23.1328C23.5244 62.0156 23.9 61.8601 24.1769 61.5832C24.4538 61.3062 24.6094 60.9307 24.6094 60.5391V39.8672C24.6094 39.4756 24.4538 39.1 24.1769 38.8231C23.9 38.5462 23.5244 38.3906 23.1328 38.3906ZM18.2109 59.6777C17.9189 59.6777 17.6334 59.5911 17.3906 59.4289C17.1478 59.2666 16.9585 59.036 16.8468 58.7662C16.735 58.4964 16.7058 58.1995 16.7627 57.9131C16.8197 57.6267 16.9603 57.3636 17.1669 57.1571C17.3734 56.9506 17.6364 56.81 17.9229 56.753C18.2093 56.696 18.5062 56.7252 18.776 56.837C19.0458 56.9488 19.2764 57.138 19.4387 57.3808C19.6009 57.6237 19.6875 57.9091 19.6875 58.2012C19.6875 58.5928 19.5319 58.9684 19.255 59.2453C18.9781 59.5222 18.6025 59.6777 18.2109 59.6777Z" fill="#5B5B5B"/>
</svg>
