<svg width="50" height="50" viewBox="0 0 50 50" fill="none" xmlns="http://www.w3.org/2000/svg">
<path d="M10.8656 6.92798L1.84539 11.7154C1.69089 11.7963 1.545 11.8885 1.4071 11.9894L24.4726 24.017L34.1313 19.2397L10.8656 6.92798Z" fill="#5B5B5B"/>
<path d="M49.9955 14.6603L38.4562 20.3677V26.7977C38.4562 27.6064 37.8005 28.262 36.9918 28.262C36.1831 28.262 35.5274 27.6064 35.5274 26.7977V21.8163L25.9194 26.5686V49.8396C25.9495 49.8256 25.98 49.8127 26.0098 49.7979L48.0979 38.606C49.2713 38.0193 50 36.8404 50 35.528V14.7897C50 14.7462 49.9971 14.7033 49.9955 14.6603Z" fill="#5B5B5B"/>
<path d="M48.0979 11.7116L26.0188 0.524347L26.0097 0.519757C25.0266 0.0303035 23.8584 0.0412411 22.8845 0.549054L13.9917 5.26868L37.3677 17.6387L48.6509 12.0579C48.4796 11.9275 48.2957 11.8104 48.0979 11.7116Z" fill="#5B5B5B"/>
<path d="M0.00693359 14.5623C0.00302734 14.6293 0 14.6965 0 14.7643V35.5535C0 36.8388 0.707031 38.0064 1.84531 38.6024L22.8751 49.7637L22.8846 49.7687C22.9195 49.787 22.9553 49.8031 22.9907 49.82V26.5472L0.00693359 14.5623Z" fill="#5B5B5B"/>
</svg>
