<svg width="195" height="47" viewBox="0 0 195 47" fill="none" xmlns="http://www.w3.org/2000/svg">
<path d="M58.6058 20.23C57.3331 20.23 55.8151 20.1073 54.0518 19.862V17.999C55.8305 18.3823 57.3945 18.574 58.7438 18.574C59.8785 18.574 60.7065 18.4513 61.2278 18.206C61.7491 17.9453 62.0098 17.47 62.0098 16.78V14.848C62.0098 14.204 61.8258 13.7517 61.4578 13.491C61.0898 13.2303 60.4458 13.1 59.5258 13.1H57.7778C56.3211 13.1 55.2861 12.8087 54.6728 12.226C54.0595 11.6433 53.7528 10.7387 53.7528 9.512V8.316C53.7528 7.50333 53.9291 6.844 54.2818 6.338C54.6498 5.832 55.2555 5.45633 56.0988 5.211C56.9575 4.96567 58.1305 4.843 59.6178 4.843C60.6145 4.843 61.8948 4.92733 63.4588 5.096V6.775C61.7108 6.51433 60.3768 6.384 59.4568 6.384C58.0308 6.384 57.0878 6.522 56.6278 6.798C56.1525 7.08933 55.9148 7.57233 55.9148 8.247V9.949C55.9148 10.4703 56.0988 10.8537 56.4668 11.099C56.8501 11.329 57.5018 11.444 58.4218 11.444H60.2158C61.2431 11.444 62.0405 11.5667 62.6078 11.812C63.1905 12.0573 63.5968 12.433 63.8268 12.939C64.0721 13.4297 64.1948 14.0967 64.1948 14.94V16.021C64.1948 17.079 63.9955 17.9147 63.5968 18.528C63.2135 19.1413 62.6155 19.5783 61.8028 19.839C60.9901 20.0997 59.9245 20.23 58.6058 20.23ZM71.9535 20.23C68.5495 20.23 66.8475 19.0953 66.8475 16.826V12.433C66.8475 11.0837 67.2309 10.1177 67.9975 9.535C68.7795 8.937 70.0369 8.638 71.7695 8.638C73.4102 8.638 74.5909 8.92167 75.3115 9.489C76.0475 10.0563 76.4155 11.0377 76.4155 12.433V14.894H68.9405V16.573C68.9405 17.3397 69.2089 17.8917 69.7455 18.229C70.2822 18.5663 71.1102 18.735 72.2295 18.735C73.2875 18.735 74.5372 18.551 75.9785 18.183V19.77C74.5679 20.0767 73.2262 20.23 71.9535 20.23ZM74.3455 13.537V11.789C74.3455 11.1143 74.1385 10.6543 73.7245 10.409C73.3259 10.1483 72.6359 10.018 71.6545 10.018C70.7039 10.018 70.0139 10.1483 69.5845 10.409C69.1552 10.6543 68.9405 11.1143 68.9405 11.789V13.537H74.3455ZM79.5701 3.9H81.6401V20H79.5701V3.9ZM86.2193 10.225H83.6663V8.868H86.2193V7.074C86.2193 5.86267 86.5566 4.99633 87.2313 4.475C87.9213 3.93833 88.9639 3.67 90.3593 3.67C90.8806 3.67 91.5016 3.70833 92.2223 3.785V5.142C91.6396 5.06533 91.0416 5.027 90.4283 5.027C89.6616 5.027 89.1096 5.165 88.7723 5.441C88.4503 5.717 88.2893 6.21533 88.2893 6.936V8.868H91.9923V10.225H88.2893V20H86.2193V10.225ZM93.0936 12.594H99.4876V14.25H93.0936V12.594ZM106.65 20.23C105.377 20.23 103.859 20.1073 102.096 19.862V17.999C103.874 18.3823 105.438 18.574 106.788 18.574C107.922 18.574 108.75 18.4513 109.272 18.206C109.793 17.9453 110.054 17.47 110.054 16.78V14.848C110.054 14.204 109.87 13.7517 109.502 13.491C109.134 13.2303 108.49 13.1 107.57 13.1H105.822C104.365 13.1 103.33 12.8087 102.717 12.226C102.103 11.6433 101.797 10.7387 101.797 9.512V8.316C101.797 7.50333 101.973 6.844 102.326 6.338C102.694 5.832 103.299 5.45633 104.143 5.211C105.001 4.96567 106.174 4.843 107.662 4.843C108.658 4.843 109.939 4.92733 111.503 5.096V6.775C109.755 6.51433 108.421 6.384 107.501 6.384C106.075 6.384 105.132 6.522 104.672 6.798C104.196 7.08933 103.959 7.57233 103.959 8.247V9.949C103.959 10.4703 104.143 10.8537 104.511 11.099C104.894 11.329 105.546 11.444 106.466 11.444H108.26C109.287 11.444 110.084 11.5667 110.652 11.812C111.234 12.0573 111.641 12.433 111.871 12.939C112.116 13.4297 112.239 14.0967 112.239 14.94V16.021C112.239 17.079 112.039 17.9147 111.641 18.528C111.257 19.1413 110.659 19.5783 109.847 19.839C109.034 20.0997 107.968 20.23 106.65 20.23ZM119.974 20.23C119.024 20.23 118.28 20.1303 117.743 19.931C117.207 19.7163 116.816 19.3637 116.57 18.873C116.34 18.367 116.225 17.6617 116.225 16.757V10.225H113.741V8.868H116.225V5.418H118.318V8.868H122.297V10.225H118.318V16.872C118.318 17.424 118.38 17.838 118.502 18.114C118.64 18.39 118.87 18.5893 119.192 18.712C119.53 18.8193 120.013 18.873 120.641 18.873C120.841 18.873 121.393 18.8117 122.297 18.689V20.046C121.515 20.1687 120.741 20.23 119.974 20.23ZM129.274 20.23C128.293 20.23 127.557 20.1917 127.066 20.115C126.576 20.0537 126.085 19.908 125.594 19.678C125.088 19.448 124.72 19.08 124.49 18.574C124.26 18.0527 124.145 17.355 124.145 16.481V12.617C124.145 11.927 124.23 11.3213 124.398 10.8C124.567 10.2787 124.789 9.87233 125.065 9.581C125.295 9.32033 125.64 9.121 126.1 8.983C126.576 8.82967 127.059 8.73 127.549 8.684C128.101 8.65333 128.676 8.638 129.274 8.638C130.072 8.638 130.67 8.661 131.068 8.707C131.482 8.73767 131.919 8.81433 132.379 8.937C132.855 9.075 133.223 9.282 133.483 9.558C133.744 9.834 133.966 10.2327 134.15 10.754C134.319 11.2907 134.403 11.9117 134.403 12.617V16.481C134.403 17.7843 134.104 18.735 133.506 19.333C133.261 19.5783 132.908 19.77 132.448 19.908C131.988 20.046 131.513 20.138 131.022 20.184C130.44 20.2147 129.857 20.23 129.274 20.23ZM129.274 18.873C129.918 18.873 130.386 18.8577 130.677 18.827C130.969 18.7963 131.252 18.712 131.528 18.574C131.804 18.4513 131.996 18.252 132.103 17.976C132.226 17.6847 132.287 17.286 132.287 16.78V12.272C132.287 11.582 132.203 11.0837 132.034 10.777C131.866 10.455 131.574 10.248 131.16 10.156C130.762 10.0487 130.133 9.995 129.274 9.995C128.416 9.995 127.779 10.0487 127.365 10.156C126.967 10.248 126.683 10.455 126.514 10.777C126.346 11.0837 126.261 11.582 126.261 12.272V16.78C126.261 17.286 126.315 17.6847 126.422 17.976C126.545 18.252 126.744 18.4513 127.02 18.574C127.296 18.712 127.58 18.7963 127.871 18.827C128.163 18.8577 128.63 18.873 129.274 18.873ZM137.632 8.868H139.587V10.685C139.587 10.3323 139.74 10.0027 140.047 9.696C140.353 9.374 140.744 9.121 141.22 8.937C141.695 8.73767 142.163 8.638 142.623 8.638H143.635V10.409H142.485C141.503 10.409 140.79 10.5393 140.346 10.8C139.916 11.0453 139.702 11.4977 139.702 12.157V20H137.632V8.868ZM150.387 20.23C146.983 20.23 145.281 19.0953 145.281 16.826V12.433C145.281 11.0837 145.664 10.1177 146.431 9.535C147.213 8.937 148.47 8.638 150.203 8.638C151.844 8.638 153.024 8.92167 153.745 9.489C154.481 10.0563 154.849 11.0377 154.849 12.433V14.894H147.374V16.573C147.374 17.3397 147.642 17.8917 148.179 18.229C148.716 18.5663 149.544 18.735 150.663 18.735C151.721 18.735 152.971 18.551 154.412 18.183V19.77C153.001 20.0767 151.66 20.23 150.387 20.23ZM152.779 13.537V11.789C152.779 11.1143 152.572 10.6543 152.158 10.409C151.759 10.1483 151.069 10.018 150.088 10.018C149.137 10.018 148.447 10.1483 148.018 10.409C147.589 10.6543 147.374 11.1143 147.374 11.789V13.537H152.779ZM161.431 20.23C160.373 20.23 159.552 20.1303 158.97 19.931C158.402 19.7317 157.988 19.379 157.728 18.873C157.482 18.367 157.36 17.6387 157.36 16.688C157.36 15.8447 157.475 15.193 157.705 14.733C157.95 14.2577 158.356 13.9203 158.924 13.721C159.506 13.5217 160.327 13.422 161.385 13.422H164.72V11.651C164.72 11.237 164.635 10.9227 164.467 10.708C164.313 10.478 164.045 10.317 163.662 10.225C163.294 10.133 162.749 10.087 162.029 10.087C160.879 10.087 159.606 10.179 158.211 10.363V8.845C159.729 8.707 161.101 8.638 162.328 8.638C163.616 8.638 164.566 8.73767 165.18 8.937C165.793 9.121 166.215 9.45067 166.445 9.926C166.675 10.4013 166.79 11.1373 166.79 12.134V20H164.789V18.942C164.62 19.8007 163.501 20.23 161.431 20.23ZM161.776 18.873C162.527 18.873 163.163 18.8193 163.685 18.712C164.375 18.574 164.72 18.252 164.72 17.746V14.71H161.523C160.863 14.71 160.388 14.7637 160.097 14.871C159.805 14.963 159.614 15.147 159.522 15.423C159.43 15.699 159.384 16.1437 159.384 16.757C159.384 17.309 159.437 17.7383 159.545 18.045C159.652 18.3363 159.844 18.551 160.12 18.689C160.396 18.8117 160.81 18.873 161.362 18.873H161.776ZM174.589 25.06C173.071 25.06 171.79 24.9757 170.748 24.807V23.335C172.588 23.5497 173.929 23.657 174.773 23.657C175.831 23.657 176.597 23.4883 177.073 23.151C177.563 22.8137 177.809 22.254 177.809 21.472V18.804C177.778 19.2947 177.441 19.655 176.797 19.885C176.168 20.115 175.371 20.23 174.405 20.23C173.255 20.23 172.358 20.1227 171.714 19.908C171.085 19.6933 170.633 19.3407 170.357 18.85C170.096 18.3593 169.966 17.6923 169.966 16.849V12.318C169.966 10.9993 170.318 10.0563 171.024 9.489C171.744 8.92167 172.917 8.638 174.543 8.638C176.475 8.638 177.609 9.075 177.947 9.949V8.868H179.879V21.058C179.879 22.0853 179.687 22.8903 179.304 23.473C178.92 24.0557 178.345 24.462 177.579 24.692C176.812 24.9373 175.815 25.06 174.589 25.06ZM174.842 18.85C175.93 18.85 176.697 18.7197 177.142 18.459C177.586 18.1983 177.809 17.7077 177.809 16.987V11.95C177.809 11.444 177.724 11.0607 177.556 10.8C177.402 10.5393 177.111 10.3553 176.682 10.248C176.252 10.1253 175.624 10.064 174.796 10.064C174.014 10.064 173.423 10.1177 173.025 10.225C172.641 10.3323 172.373 10.524 172.22 10.8C172.082 11.0607 172.013 11.444 172.013 11.95V16.987C172.013 17.5083 172.089 17.8993 172.243 18.16C172.396 18.4207 172.672 18.6047 173.071 18.712C173.469 18.804 174.06 18.85 174.842 18.85ZM188.166 20.23C184.762 20.23 183.06 19.0953 183.06 16.826V12.433C183.06 11.0837 183.444 10.1177 184.21 9.535C184.992 8.937 186.25 8.638 187.982 8.638C189.623 8.638 190.804 8.92167 191.524 9.489C192.26 10.0563 192.628 11.0377 192.628 12.433V14.894H185.153V16.573C185.153 17.3397 185.422 17.8917 185.958 18.229C186.495 18.5663 187.323 18.735 188.442 18.735C189.5 18.735 190.75 18.551 192.191 18.183V19.77C190.781 20.0767 189.439 20.23 188.166 20.23ZM190.558 13.537V11.789C190.558 11.1143 190.351 10.6543 189.937 10.409C189.539 10.1483 188.849 10.018 187.867 10.018C186.917 10.018 186.227 10.1483 185.797 10.409C185.368 10.6543 185.153 11.1143 185.153 11.789V13.537H190.558ZM60.1468 43.23C55.9761 43.23 53.8908 41.8807 53.8908 39.182V32.121C53.8908 29.269 55.9761 27.843 60.1468 27.843C64.3635 27.843 66.4718 29.2613 66.4718 32.098V39.182C66.4718 40.6233 65.8891 41.6583 64.7238 42.287C63.5585 42.9157 62.0328 43.23 60.1468 43.23ZM60.1928 41.735C62.9375 41.735 64.3098 40.8763 64.3098 39.159V32.052C64.3098 30.212 62.9298 29.292 60.1698 29.292C58.8358 29.292 57.8085 29.499 57.0878 29.913C56.3825 30.327 56.0298 31.04 56.0298 32.052V39.159C56.0298 40.8763 57.4175 41.735 60.1928 41.735ZM73.6412 43.23C72.2152 43.23 71.2108 42.977 70.6282 42.471C70.0608 41.9497 69.7772 41.137 69.7772 40.033V31.868H71.8472V39.918C71.8472 40.2093 71.8702 40.447 71.9162 40.631C71.9775 40.7997 72.0772 40.976 72.2152 41.16C72.4912 41.5587 73.1658 41.758 74.2392 41.758C75.3738 41.758 76.1712 41.6507 76.6312 41.436C77.0758 41.2213 77.2982 40.8303 77.2982 40.263V31.868H79.3682V43H77.2982V41.643C77.0988 42.701 75.8798 43.23 73.6412 43.23ZM87.6307 43.23C86.6801 43.23 85.9364 43.1303 85.3997 42.931C84.8631 42.7163 84.4721 42.3637 84.2267 41.873C83.9967 41.367 83.8817 40.6617 83.8817 39.757V33.225H81.3977V31.868H83.8817V28.418H85.9747V31.868H89.9537V33.225H85.9747V39.872C85.9747 40.424 86.0361 40.838 86.1587 41.114C86.2967 41.39 86.5267 41.5893 86.8487 41.712C87.1861 41.8193 87.6691 41.873 88.2977 41.873C88.4971 41.873 89.0491 41.8117 89.9537 41.689V43.046C89.1717 43.1687 88.3974 43.23 87.6307 43.23ZM92.2156 26.9H94.2856V43H92.2156V26.9ZM102.568 43.23C99.1638 43.23 97.4618 42.0953 97.4618 39.826V35.433C97.4618 34.0837 97.8451 33.1177 98.6118 32.535C99.3938 31.937 100.651 31.638 102.384 31.638C104.024 31.638 105.205 31.9217 105.926 32.489C106.662 33.0563 107.03 34.0377 107.03 35.433V37.894H99.5548V39.573C99.5548 40.3397 99.8231 40.8917 100.36 41.229C100.896 41.5663 101.724 41.735 102.844 41.735C103.902 41.735 105.151 41.551 106.593 41.183V42.77C105.182 43.0767 103.84 43.23 102.568 43.23ZM104.96 36.537V34.789C104.96 34.1143 104.753 33.6543 104.339 33.409C103.94 33.1483 103.25 33.018 102.269 33.018C101.318 33.018 100.628 33.1483 100.199 33.409C99.7695 33.6543 99.5548 34.1143 99.5548 34.789V36.537H104.96ZM114.853 43.23C113.903 43.23 113.159 43.1303 112.622 42.931C112.086 42.7163 111.695 42.3637 111.449 41.873C111.219 41.367 111.104 40.6617 111.104 39.757V33.225H108.62V31.868H111.104V28.418H113.197V31.868H117.176V33.225H113.197V39.872C113.197 40.424 113.259 40.838 113.381 41.114C113.519 41.39 113.749 41.5893 114.071 41.712C114.409 41.8193 114.892 41.873 115.52 41.873C115.72 41.873 116.272 41.8117 117.176 41.689V43.046C116.394 43.1687 115.62 43.23 114.853 43.23Z" fill="#616161"/>
<path d="M27.636 10.8603V10.8493L35.9101 14.5552L44.2174 11.4407L22.1089 3.14999L0.000488281 11.4407L22.1089 19.7313L30.383 16.6278L22.1089 13.2176V13.2093L27.636 10.8603Z" fill="#3498DB"/>
<path d="M0 14.2042V39.0761L20.7267 46.85V21.978L0 14.2042ZM11.0542 39.1673L5.52711 37.0947V34.146L11.0542 36.2186V39.1673Z" fill="#FFC350"/>
<path d="M35.926 17.3132V24.2359L30.3989 26.3085V19.3858L23.49 21.978V46.85L44.2166 39.0761V14.2042L35.926 17.3132Z" fill="#2383C2"/>
</svg>
