<svg width="32" height="32" viewBox="0 0 32 32" fill="none" xmlns="http://www.w3.org/2000/svg">
<path d="M23.1344 9.58144C24.9775 7.74719 26.1207 5.21077 26.1207 2.41171C26.1207 1.07979 25.0409 0 23.709 0H8.29201C6.96009 0 5.8803 1.07979 5.8803 2.41176C5.8803 5.21067 7.02341 7.74714 8.86602 9.58149C4.59517 12.0559 1.70801 16.665 1.70801 21.9467C1.70801 32 12.0909 32 15.9998 32C19.9088 32 30.2916 32 30.2916 21.9466C30.2924 16.6656 27.4052 12.0558 23.1344 9.58144ZM20.7226 27.9496H11.3197C10.4928 27.9496 9.93122 27.3902 9.93122 26.6949C9.93122 26.1332 10.2674 25.6186 10.8732 25.4145L11.769 25.123V21.9603H11.3665C10.5824 21.9603 9.93122 21.3325 9.93122 20.5463C9.93122 19.7608 10.5824 19.1095 11.3665 19.1095H11.769V17.2918C11.769 15.6747 12.241 14.3302 13.1154 13.4565C14.0374 12.5366 15.3605 12.0204 17.0906 12.0204C19.0833 12.0204 20.4098 12.7164 21.3959 13.7238C21.7128 14.0387 21.9339 14.3978 21.9339 14.958C21.9339 15.9027 21.1726 16.642 20.2286 16.642C19.623 16.642 19.2185 16.3505 18.9959 16.1259C18.4144 15.5194 17.874 15.2287 17.1326 15.2287C16.5937 15.2287 16.1914 15.385 15.8544 15.7206C15.4948 16.0796 15.2715 16.6654 15.2715 17.3812V19.1094H19.0834C19.8724 19.1094 20.5214 19.7606 20.5214 20.5461C20.5214 21.3324 19.8724 21.9602 19.0834 21.9602H15.2721V24.9665H20.7226C21.5557 24.9665 22.2282 25.6405 22.2282 26.4687C22.2282 27.3006 21.5559 27.9496 20.7226 27.9496Z" fill="#1ABC9C"/>
</svg>
