<svg width="115" height="21" viewBox="0 0 115 21" fill="none" xmlns="http://www.w3.org/2000/svg">
<path d="M10.6424 1.39722L13.4826 7.13643L19.8366 8.05867L15.2395 12.5387L16.3228 18.8633L10.6424 15.8766L4.97667 18.8633L6.05996 12.5387L1.46289 8.05867L7.80226 7.13643L10.6424 1.39722Z" fill="#F7D211"/>
<path d="M16.3227 20.3273C16.09 20.3273 15.8558 20.2716 15.6419 20.1588L10.6437 17.5309L5.66008 20.1588C5.16661 20.4194 4.56938 20.374 4.11701 20.049C3.666 19.7211 3.44071 19.1647 3.53438 18.6158L4.48897 13.0511L0.442409 9.10694C0.0428291 8.71747 -0.100696 8.13618 0.0720283 7.60633C0.244753 7.07625 0.702955 6.69127 1.25347 6.60929L6.83298 5.79823L9.33199 0.74879C9.8268 -0.249597 11.4622 -0.249597 11.957 0.74879L14.456 5.79823L20.0485 6.60929C20.6004 6.68992 21.0588 7.07625 21.2315 7.60633C21.4043 8.1364 21.2607 8.71747 20.8612 9.10694L16.8146 13.0511L17.7676 18.6158C17.8613 19.1647 17.6358 19.7197 17.185 20.049C16.9289 20.2336 16.6257 20.3273 16.3227 20.3273ZM10.6424 14.4127C10.8766 14.4127 11.1109 14.4684 11.3231 14.5811L14.3785 16.1871L13.7959 12.7876C13.7152 12.3132 13.872 11.8288 14.2175 11.4918L16.6888 9.08201L13.2719 8.58562C12.7946 8.51689 12.3831 8.21816 12.1695 7.78624L10.6426 4.69854L9.11569 7.78624C8.90186 8.21816 8.4906 8.51689 8.01465 8.58562L4.6107 9.08044L7.08342 11.4916C7.42887 11.827 7.58565 12.313 7.50502 12.7874L6.92238 16.1826L9.96179 14.5809C10.1738 14.4681 10.4081 14.4127 10.6424 14.4127Z" fill="#F7D211"/>
<path d="M34.0668 1.39722L36.9069 7.13643L43.2609 8.05867L38.6638 12.5387L39.7471 18.8633L34.0668 15.8766L28.401 18.8633L29.4843 12.5387L24.8872 8.05867L31.2266 7.13643L34.0668 1.39722Z" fill="#F7D211"/>
<path d="M39.7473 20.3273C39.5146 20.3273 39.2803 20.2716 39.0665 20.1588L34.0683 17.5309L29.0846 20.1588C28.5927 20.4194 27.9939 20.374 27.5416 20.049C27.0906 19.7211 26.8653 19.1647 26.9589 18.6158L27.9135 13.0511L23.867 9.10694C23.4674 8.71747 23.3239 8.13618 23.4966 7.60633C23.6693 7.07625 24.1275 6.69127 24.678 6.60929L30.2575 5.79823L32.7565 0.74879C33.2514 -0.249597 34.8867 -0.249597 35.3815 0.74879L37.8806 5.79823L43.4731 6.60929C44.025 6.68992 44.4834 7.07625 44.6561 7.60633C44.8288 8.1364 44.6853 8.71747 44.2857 9.10694L40.2392 13.0511L41.1922 18.6158C41.2858 19.1647 41.0603 19.7197 40.6095 20.049C40.3535 20.2336 40.0505 20.3273 39.7473 20.3273ZM34.0669 14.4127C34.3012 14.4127 34.5354 14.4684 34.7477 14.5811L37.8031 16.1871L37.2204 12.7876C37.1398 12.3132 37.2966 11.8288 37.642 11.4918L40.1134 9.08201L36.6964 8.58562C36.2191 8.51689 35.8076 8.21816 35.594 7.78624L34.0671 4.69854L32.5402 7.78624C32.3264 8.21816 31.9152 8.51689 31.4392 8.58562L28.0353 9.08044L30.508 11.4916C30.8534 11.827 31.0102 12.313 30.9296 12.7874L30.3469 16.1826L33.3863 14.5809C33.5984 14.4681 33.8326 14.4127 34.0669 14.4127Z" fill="#F7D211"/>
<path d="M57.4913 1.39722L60.3315 7.13643L66.6855 8.05867L62.0884 12.5387L63.1719 18.8633L57.4913 15.8766L51.8256 18.8633L52.9091 12.5387L48.312 8.05867L54.6512 7.13643L57.4913 1.39722Z" fill="#F7D211"/>
<path d="M51.8255 20.3273C51.5225 20.3273 51.2208 20.2336 50.9661 20.0492C50.5151 19.7213 50.2898 19.165 50.3835 18.616L51.3381 13.0513L47.2915 9.10719C46.892 8.71772 46.7484 8.13643 46.9211 7.60658C47.0939 7.0765 47.5521 6.69152 48.1026 6.60954L53.6821 5.79847L56.1811 0.749035C56.6759 -0.249353 58.3113 -0.249353 58.8061 0.749035L61.3051 5.79847L66.8977 6.60954C67.4495 6.68995 67.9064 7.0765 68.0807 7.60658C68.252 8.13665 68.1099 8.71772 67.7103 9.10719L63.6637 13.0513L64.6168 18.616C64.7104 19.165 64.4849 19.72 64.0355 20.0479C63.5831 20.3774 62.9872 20.4198 62.4924 20.1591L57.4942 17.5311L52.5105 20.1591C52.294 20.2716 52.0598 20.3273 51.8255 20.3273ZM57.4913 14.4127C57.7255 14.4127 57.9598 14.4684 58.172 14.5811L61.2274 16.1871L60.6461 12.7876C60.5641 12.3133 60.7223 11.8288 61.0664 11.4919L63.5377 9.08203L60.1208 8.58564C59.6435 8.51691 59.232 8.21819 59.0184 7.78626L57.4915 4.69856L55.9646 7.78626C55.7508 8.21819 55.3395 8.51691 54.8636 8.58564L51.4596 9.08046L53.9323 11.4916C54.2778 11.827 54.4345 12.313 54.3539 12.7874L53.7713 16.1826L56.8107 14.5809C57.0229 14.4682 57.257 14.4127 57.4913 14.4127Z" fill="#F7D211"/>
<path d="M80.9159 1.39722L83.7561 7.13643L90.1098 8.05867L85.5129 12.5387L86.5962 18.8633L80.9159 15.8766L75.2499 18.8633L76.3334 12.5387L71.7363 8.05867L78.0755 7.13643L80.9159 1.39722Z" fill="#F7D211"/>
<path d="M75.2517 20.3273C74.9487 20.3273 74.647 20.2336 74.3923 20.0492C73.9399 19.7213 73.7144 19.1665 73.8097 18.616L74.7613 13.0513L70.7148 9.10717C70.3166 8.7177 70.173 8.13641 70.3444 7.60656C70.5171 7.07648 70.9753 6.6915 71.5274 6.60952L77.1069 5.79845L79.6046 0.749018C80.0994 -0.24937 81.7348 -0.248022 82.2296 0.749018L84.7286 5.80003L90.3211 6.61109C90.873 6.6915 91.3299 7.07805 91.5042 7.60813C91.6755 8.13821 91.5333 8.71927 91.1338 9.10874L87.0872 13.0529L88.0402 18.6176C88.1339 19.1665 87.9084 19.7215 87.4589 20.0494C87.005 20.379 86.4093 20.4214 85.9172 20.1606L80.9177 17.5327L75.9356 20.1606C75.7186 20.2716 75.4844 20.3273 75.2517 20.3273ZM80.9161 14.4127C81.1503 14.4127 81.383 14.4684 81.5969 14.5811L84.6538 16.1871L84.0725 12.7876C83.9905 12.3132 84.1487 11.8288 84.4928 11.4918L86.9641 9.08202L83.5472 8.58563C83.0714 8.5169 82.6599 8.21817 82.4448 7.78625L80.9163 4.69854L79.3894 7.78625C79.1756 8.21817 78.7643 8.5169 78.287 8.58563L74.8831 9.08044L77.3558 11.4916C77.6999 11.827 77.858 12.313 77.776 12.7874L77.1963 16.1826L80.2328 14.5809C80.446 14.4681 80.6818 14.4127 80.9161 14.4127Z" fill="#F7D211"/>
<path d="M98.676 20.3273C98.373 20.3273 98.0713 20.2336 97.8166 20.0492C97.3643 19.7213 97.1388 19.1665 97.234 18.616L98.1857 13.0513L94.1391 9.10717C93.7409 8.7177 93.5973 8.13641 93.7687 7.60656C93.9414 7.07648 94.3996 6.6915 94.9517 6.60952L100.531 5.79845L103.029 0.749018C103.524 -0.24937 105.159 -0.248022 105.654 0.749018L108.153 5.80003L113.745 6.61109C114.297 6.6915 114.754 7.07805 114.928 7.60813C115.1 8.13821 114.958 8.71927 114.558 9.10874L110.512 13.0529L111.465 18.6176C111.558 19.1665 111.333 19.7215 110.883 20.0494C110.431 20.379 109.833 20.4214 109.342 20.1606L104.342 17.5327L99.3599 20.1606C99.1429 20.2716 98.9089 20.3273 98.676 20.3273ZM104.34 14.4127C104.575 14.4127 104.807 14.4684 105.021 14.5811L108.078 16.1871L107.497 12.7876C107.415 12.3132 107.573 11.8288 107.917 11.4918L110.388 9.08202L106.971 8.58563C106.496 8.5169 106.084 8.21817 105.869 7.78625L104.341 4.69854L102.814 7.78625C102.6 8.21817 102.189 8.5169 101.711 8.58563L98.3074 9.08044L100.78 11.4916C101.124 11.827 101.282 12.313 101.2 12.7874L100.621 16.1826L103.657 14.5809C103.871 14.4681 104.106 14.4127 104.34 14.4127Z" fill="#F7D211"/>
</svg>
