<svg width="36" height="36" viewBox="0 0 36 36" fill="none" xmlns="http://www.w3.org/2000/svg">
<path d="M36 18C36 8.07419 27.9258 -3.52934e-07 18 -7.86805e-07C8.07419 -1.22068e-06 -3.52934e-07 8.07419 -7.86805e-07 18C-1.22068e-06 27.9258 8.0756 36 18 36C27.9244 36 36 27.9258 36 18ZM2.78852 18C2.78852 9.61348 9.61207 2.78852 18 2.78852C26.3879 2.78852 33.2115 9.61348 33.2115 18C33.2115 26.3879 26.3879 33.2115 18 33.2115C9.61207 33.2115 2.78852 26.3865 2.78852 18Z" fill="#4DCCBD"/>
<path d="M16.0758 25.9613L23.0471 18.9899C23.5881 18.4461 23.5881 17.5678 23.0471 17.024L16.0758 10.0526C15.5544 9.6051 14.7833 9.6051 14.2619 10.0526C13.6777 10.5532 13.6094 11.4343 14.1099 12.0186L20.0913 18L14.1099 23.9953C13.5689 24.5391 13.5689 25.4175 14.1099 25.9613C14.6537 26.5022 15.5321 26.5022 16.0758 25.9613Z" fill="#4DCCBD"/>
</svg>
