<svg width="36" height="36" viewBox="0 0 36 36" fill="none" xmlns="http://www.w3.org/2000/svg">
<path d="M7.86805e-07 18C3.52934e-07 8.07419 8.07419 -3.52934e-07 18 -7.86805e-07C27.9258 -1.22068e-06 36 8.07419 36 18C36 27.9258 27.9244 36 18 36C8.0756 36 1.22068e-06 27.9258 7.86805e-07 18ZM33.2115 18C33.2115 9.61348 26.3879 2.78852 18 2.78852C9.61207 2.78852 2.78852 9.61348 2.78852 18C2.78852 26.3879 9.61207 33.2115 18 33.2115C26.3879 33.2115 33.2115 26.3865 33.2115 18Z" fill="#4DCCBD"/>
<path d="M19.9242 25.9613L12.9529 18.9899C12.4119 18.4461 12.4119 17.5678 12.9529 17.024L19.9242 10.0526C20.4456 9.6051 21.2167 9.6051 21.7381 10.0526C22.3223 10.5532 22.3906 11.4343 21.8901 12.0186L15.9087 18L21.8901 23.9953C22.4311 24.5391 22.4311 25.4175 21.8901 25.9613C21.3463 26.5022 20.4679 26.5022 19.9242 25.9613Z" fill="#4DCCBD"/>
</svg>
